<?xml version="1.0" encoding="UTF-8"?>
<!DOCTYPE svg PUBLIC "-//W3C//DTD SVG 1.1//EN" "http://www.w3.org/Graphics/SVG/1.1/DTD/svg11.dtd">
<!-- Creator: CorelDRAW 2018 -->
<svg xmlns="http://www.w3.org/2000/svg" xml:space="preserve" width="297mm" height="210mm" version="1.1" style="shape-rendering:geometricPrecision; text-rendering:geometricPrecision; image-rendering:optimizeQuality; fill-rule:evenodd; clip-rule:evenodd"
viewBox="0 0 29700 21000"
 xmlns:xlink="http://www.w3.org/1999/xlink">
 <defs>
  <style type="text/css">
   <![CDATA[
    .fil1 {fill:#EA5B21}
    .fil2 {fill:#EA5B21;fill-rule:nonzero}
    .fil0 {fill:#1C1B17;fill-rule:nonzero}
   ]]>
  </style>
 </defs>
 <g id="Layer_x0020_1">
  <metadata id="CorelCorpID_0Corel-Layer"/>
  <g id="_1188454992">
   <path class="fil0" d="M2173.86 4784.13l25499.85 0 0 11431.68 -25647.55 0 0 -11431.68 147.7 0zm25204.44 295.41l-25056.74 0 0 10840.86 25056.74 0 0 -10840.86z"/>
   <g>
    <g>
     <path class="fil1" d="M11096.57 5917.18l0 2159.72 -1897.99 1388.96c-108.22,79.28 -219.44,164.19 -316.85,256.44 -70.27,66.54 -136.57,137.77 -196.03,214.16 -48.4,64.5 -91.88,131.4 -128.52,201.06l-3409.83 0 0 2654.22 -1850.79 0 0 -6874.56 1850.79 0 0 2491.58 4098.31 0 0 -2491.58 1850.91 0zm0 6196.41l0 678.15 -1850.91 0 0 -783.24c227.37,82.87 487.05,105.09 727.15,105.09l1123.76 0z"/>
     <path class="fil0" d="M14762.61 12791.74l0 -955.96 -652.81 0 -4136.99 0c-264.36,0 -477.92,-30.51 -640.67,-91.53 -162.75,-61.02 -291.51,-145.69 -386.4,-254.15 -169.47,-189.9 -254.27,-440.69 -254.27,-752.62 0,-101.61 15.25,-205.03 45.76,-310.13 30.51,-105.1 86.48,-211.87 167.8,-320.33 47.44,-61.02 103.41,-122.04 167.79,-183.05 64.38,-61.02 161.07,-138.97 289.83,-233.86l4891.53 -3579.67c176.2,-128.88 337.27,-218.73 483.08,-269.53 145.7,-50.81 303.28,-76.27 472.88,-76.27 176.2,0 354.21,27.14 533.9,81.31 179.56,54.29 337.27,149.18 472.87,284.79 115.19,115.3 210.08,266.16 284.67,452.57 74.59,186.42 111.94,439.01 111.94,757.55l0 2888.19 1677.35 0 0 1606.73 -1677.35 0 0 955.96 -1850.91 0zm0 -4688.06c0,-67.86 -16.94,-118.67 -50.81,-152.54 -33.87,-33.99 -67.86,-50.93 -101.73,-50.93 -33.88,0 -61.02,3.37 -81.32,10.21 -20.3,6.73 -47.44,23.66 -81.31,50.81l-2867.9 2044.05c-47.44,27.15 -71.1,64.38 -71.1,111.95 0,74.46 37.23,111.82 111.82,111.82l2489.54 0 652.81 0 0 -2125.37z"/>
     <path class="fil2" d="M22752.54 5976.98c555.94,0 1042.33,79.61 1459.26,238.93 417.03,159.32 778.01,381.39 1083.04,666.12 345.75,318.64 616.97,694.95 813.56,1128.84 196.68,433.88 294.97,901.69 294.97,1403.31 0,454.29 -77.98,878.02 -233.95,1271.2 -155.87,393.27 -372.86,742.37 -650.78,1047.5 -318.64,345.75 -705.11,618.59 -1159.31,818.63 -454.29,199.94 -989.82,299.96 -1606.79,299.96l-3711.86 0c-298.33,0 -447.49,-145.72 -447.49,-437.24l0 -6010.16c0,-284.72 149.16,-427.09 447.49,-427.09l3711.86 0zm-2186.4 1820.25c-88.14,0 -132.21,47.51 -132.21,142.45l0 2959.24c0,94.94 44.07,142.36 132.21,142.36l2186.4 0c325.44,0 600.01,-47.42 823.71,-142.36 223.69,-94.94 410.13,-223.7 559.29,-386.37 135.66,-142.46 240.66,-306.85 315.29,-493.29 74.53,-186.43 111.89,-384.74 111.89,-594.93 0,-230.5 -45.79,-447.39 -137.28,-650.78 -91.59,-203.39 -215.27,-379.67 -371.24,-528.83 -149.16,-135.56 -325.44,-244.11 -528.82,-325.44 -203.39,-81.34 -461.01,-122.05 -772.84,-122.05l-2186.4 0z"/>
    </g>
    <path class="fil0" d="M3747.76 13399.36l346.71 0 0 675.98 598.67 0 0 -675.98 344.22 0 0 1791.02 -344.22 0 0 -785.77 -598.67 0 0 785.77 -346.71 0 0 -1791.02zm2576.89 -44.84c253.11,0 470.97,91.88 653.09,275.24 182.5,183.27 273.51,406.97 273.51,670.52 0,261.55 -89.77,482.66 -269.78,663.53 -179.63,180.88 -397.87,271.51 -654.33,271.51 -269.01,0 -492.23,-93.12 -669.75,-278.98 -178,-185.86 -266.91,-406.59 -266.91,-662.28 0,-170.82 41.58,-328.41 124.26,-472.31 82.77,-143.41 196.68,-257.32 341.34,-341.25 145.05,-84.01 301.4,-125.98 468.57,-125.98zm-5.08 334.26c-164.97,0 -303.88,57.77 -416.07,172.92 -112.66,115.16 -168.8,261.54 -168.8,439.45 0,197.83 70.7,354.56 212.39,469.72 110.18,90.24 236.16,135.17 378.81,135.17 160.85,0 298.04,-58.63 411.08,-175.41 113.53,-116.88 170.05,-260.68 170.05,-431.97 0,-170.44 -56.9,-314.71 -171.29,-432.84 -113.91,-118.03 -252.73,-177.04 -416.17,-177.04zm1286.53 -289.42l339.24 0 0 1466.73 501.33 0 0 324.29 -840.57 0 0 -1791.02zm1108.53 0l339.24 0 0 1791.02 -339.24 0 0 -1791.02zm758.85 0l977.85 0 0 334.25 -638.61 0 0 321.8 638.61 0 0 329.28 -638.61 0 0 471.44 638.61 0 0 334.25 -977.85 0 0 -1791.02zm1330.5 0l403.71 0c260.2,0 453.53,32.48 580.37,96.95 126.37,64.38 230.7,169.19 312.61,314.71 81.91,145.05 122.62,314.71 122.62,508.81 0,138.05 -22.89,264.8 -68.59,380.43 -45.7,115.54 -109.31,211.63 -189.98,288.08 -80.66,76.06 -167.94,128.85 -261.92,158.36 -93.98,29.12 -256.94,43.68 -488.88,43.68l-409.94 0 0 -1791.02zm339.24 329.27l0 1129.99 157.98 0c155.87,0 268.53,-17.91 338.85,-53.65 70.22,-35.73 127.61,-95.99 172.06,-180.39 44.55,-84.41 66.97,-188.35 66.97,-312.22 0,-189.98 -53.17,-337.61 -159.23,-442.32 -95.61,-94.37 -249.47,-141.41 -461.09,-141.41l-115.54 0zm1985.69 -329.27l343.45 0 689.2 1791.02 -354.56 0 -139.68 -369.12 -734.23 0 -143.03 369.12 -354.56 0 693.41 -1791.02zm172.16 476.04l-242.86 616.59 484.38 0 -241.52 -616.59zm1030.35 -476.04l364.63 0 332.53 643.22 332.62 -643.22 364.62 0 -525.09 1015.22 0 775.8 -344.22 0 0 -775.8 -525.09 -1015.22zm3031.28 -44.84l338.38 0 0 1154.9 159.7 0 0 314.33 -159.7 0 0 366.63 -334.26 0 0 -366.63 -783.18 0 0 -313.47 779.06 -1155.76zm4.12 1154.9l0 -601.16 -409.84 601.16 409.84 0zm1502.28 -1110.06l403.71 0c260.2,0 453.53,32.48 580.37,96.95 126.36,64.38 230.69,169.19 312.6,314.71 81.91,145.05 122.63,314.71 122.63,508.81 0,138.05 -22.9,264.8 -68.6,380.43 -45.69,115.54 -109.31,211.63 -189.97,288.08 -80.67,76.06 -167.94,128.85 -261.93,158.36 -93.98,29.12 -256.94,43.68 -488.87,43.68l-409.94 0 0 -1791.02zm339.23 329.27l0 1129.99 157.98 0c155.87,0 268.53,-17.91 338.85,-53.65 70.23,-35.73 127.61,-95.99 172.06,-180.39 44.55,-84.41 66.97,-188.35 66.97,-312.22 0,-189.98 -53.17,-337.61 -159.22,-442.32 -95.61,-94.37 -249.47,-141.41 -461.1,-141.41l-115.54 0zm1425.73 -329.27l341.73 0 0 1158.73c0,99.73 8.72,170.43 26.15,211.53 17.54,41.58 46.18,74.44 86.51,99.44 40.34,24.53 89,36.98 145.53,36.98 60.26,0 111.8,-13.7 155.48,-41.58 43.59,-27.49 73.58,-62.36 90.15,-105.19 16.67,-42.44 25.01,-123.87 25.01,-244l0 -1115.91 341.72 0 0 1067.62c0,180.49 -9.96,305.13 -30.36,374.97 -20.41,69.94 -59.02,137.29 -116.4,202.05 -57.01,64.86 -123.11,113.14 -197.93,144.28 -74.34,31.23 -161.24,47.04 -260.2,47.04 -129.72,0 -242.76,-29.99 -338.85,-89.39 -96.48,-59.87 -165.07,-134.31 -206.65,-224.08 -41.1,-89.86 -61.89,-241.13 -61.89,-454.87l0 -1067.62zm1640.23 1791.02l0 -1791.02 282.72 0c164.2,0 283.95,10.44 360.02,31.61 107.68,28.75 193.33,81.53 256.94,158.46 63.62,77.31 95.61,168.33 95.61,273.13 0,68.12 -14.56,130.1 -43.3,185.76 -28.64,55.76 -75.59,108.17 -140.45,156.74 108.45,51.16 187.87,114.77 238.17,191.7 50.3,76.45 75.3,167.08 75.3,271.88 0,100.6 -26.25,192.09 -78.18,274.77 -52.4,82.77 -119.75,144.66 -202.04,185.47 -82.3,41.1 -195.82,61.5 -340.96,61.5l-503.83 0zm339.24 -1466.73l0 379.19 76.07 0c84.78,0 148.01,-17.44 189.21,-52.79 41.09,-34.97 61.5,-82.77 61.5,-143.03 0,-56.14 -19.54,-100.6 -58.63,-133.84 -39.09,-32.86 -98.48,-49.53 -178.38,-49.53l-89.77 0zm0 683.45l0 458.99 86.51 0c143.41,0 240.27,-17.82 290.18,-53.65 49.82,-35.73 74.83,-87.66 74.83,-155.87 0,-76.93 -29.13,-138.05 -87.76,-182.5 -58.63,-44.45 -155.87,-66.97 -291.81,-66.97l-71.95 0zm1690.91 -1007.74l343.45 0 689.2 1791.02 -354.56 0 -139.68 -369.12 -734.23 0 -143.03 369.12 -354.57 0 693.42 -1791.02zm172.16 476.04l-242.86 616.59 484.37 0 -241.51 -616.59zm1133.91 -476.04l339.24 0 0 1791.02 -339.24 0 0 -1791.02z"/>
   </g>
  </g>
 </g>
</svg>
